<svg width="133" height="26" viewBox="0 0 133 26" fill="none" xmlns="http://www.w3.org/2000/svg">
<g clip-path="url(#clip0_1957_2867)">
<path d="M46.5504 21.2496C51.0352 16.7582 51.0352 9.4762 46.5504 4.98482C42.0657 0.493435 34.7945 0.493437 30.3098 4.98482C25.825 9.4762 25.825 16.7582 30.3098 21.2496C34.7945 25.7409 42.0657 25.7409 46.5504 21.2496Z" fill="white"/>
<path d="M19.2159 5.31917C19.2159 5.31917 19.2083 5.31917 19.2007 5.32677C17.0513 6.49817 14.5752 7.16755 11.9549 7.16755C9.94215 7.16755 8.02815 6.77201 6.26606 6.0646C3.78242 5.04533 1.62538 3.40233 0 1.31055V24.9287C1.62538 22.8369 3.78242 21.1863 6.26606 20.1899C8.02815 19.4748 9.94215 19.0869 11.9549 19.0869C14.5828 19.0869 17.0513 19.7487 19.2007 20.9277C19.2007 20.9277 19.2083 20.9353 19.2159 20.9353C21.0388 21.9317 22.6338 23.3009 23.9022 24.9363V1.31815C22.6338 2.95355 21.0388 4.31511 19.2159 5.31917Z" fill="white"/>
<path d="M78.2158 13.0313C77.9499 12.9248 77.7752 12.6434 77.7752 12.3239V12.2478C77.7752 11.9436 77.9347 11.6774 78.1778 11.5557C78.8006 11.259 79.2487 10.7874 79.5525 10.118C79.8715 9.40302 80.0386 8.4446 80.0386 7.25799V6.24633C80.0386 4.46641 79.6816 3.15809 78.9829 2.3518C78.2841 1.54552 77.1144 1.13477 75.5043 1.13477H71.3573C71.3573 1.13477 71.3573 1.13477 71.3649 1.13477H47.7361C49.3767 2.40505 50.7362 4.00241 51.7388 5.84318C51.7388 5.84318 51.7388 5.85079 51.7464 5.8584C52.9161 8.01864 53.592 10.4907 53.592 13.1302C53.592 15.1459 53.1971 17.0704 52.4831 18.8351C51.4654 21.33 49.8172 23.4826 47.7285 25.118H70.856V25.1256H75.7245C77.2739 25.1256 78.4512 24.6769 79.2259 23.7945C79.993 22.9122 80.388 21.581 80.388 19.8315V17.6485C80.388 15.1079 79.674 13.6018 78.2158 13.0313ZM73.0586 3.2798H75.3979C76.2182 3.2798 76.8486 3.58406 77.2663 4.18497C77.6537 4.74024 77.836 5.54653 77.836 6.64947V8.07189C77.836 9.2585 77.6005 10.1028 77.1296 10.6657C76.6511 11.2286 75.9676 11.51 75.0865 11.51H73.0662V3.2798H73.0586ZM66.6102 18.8199C65.8963 17.0552 65.5013 15.1383 65.5013 13.115C65.5013 10.4831 66.1621 8.00343 67.347 5.84318C67.347 5.84318 67.3546 5.83558 67.3546 5.82797C68.1369 4.40556 69.1395 3.12006 70.3091 2.01712C70.5218 1.81935 70.8636 1.97148 70.8636 2.26053V23.9695C70.8636 24.2585 70.5218 24.4106 70.3091 24.2129C68.7217 22.7144 67.4457 20.8736 66.6102 18.8199ZM78.193 19.7098C78.193 20.8356 77.9955 21.6343 77.5778 22.1591C77.1524 22.6992 76.5296 22.9654 75.7245 22.9654H73.0662V13.6474H75.284C76.279 13.6474 77.0309 13.9593 77.5094 14.5678C77.9727 15.1611 78.2006 16.1196 78.2006 17.4887V19.7098H78.193Z" fill="white"/>
<path d="M90.6028 22.7676V18.2874C90.6028 16.8954 90.4433 15.7849 90.1319 14.9862C89.8584 14.294 89.4027 13.8452 88.7419 13.617C88.4685 13.5257 88.2786 13.2291 88.2786 12.902V12.8259C88.2786 12.5217 88.4381 12.2478 88.6888 12.1338C89.9572 11.5481 90.5724 10.1332 90.5724 7.80566V6.24633C90.5724 4.46641 90.2154 3.15809 89.5167 2.3518C88.8179 1.54552 87.6482 1.13477 86.0304 1.13477H81.4961V25.118H83.6911V14.1951H85.5519C86.5621 14.1951 87.3064 14.5222 87.7622 15.1611C88.1951 15.7697 88.4002 16.7205 88.4002 18.0744V22.7296C88.4002 23.6424 88.4229 24.2661 88.4609 24.5932C88.4761 24.7605 88.5065 24.9279 88.5521 25.1104H90.7395C90.7091 24.9431 90.6863 24.7757 90.6711 24.6084C90.6256 24.1368 90.6028 23.5359 90.6028 22.7676ZM87.671 11.2058C87.1925 11.7686 86.5089 12.0501 85.6279 12.0501H83.6987V3.2798H85.9469C86.7672 3.2798 87.3976 3.58406 87.8153 4.18497C88.2027 4.74024 88.385 5.54653 88.385 6.64947V8.61195C88.3774 9.79856 88.1419 10.6429 87.671 11.2058Z" fill="white"/>
<path d="M95.1093 1.13477L91.6914 25.118H93.6054L94.2434 20.1358H99.355L99.993 25.118H101.907L98.4891 1.13477H95.1093ZM94.4713 18.1657L96.0966 4.77827C96.1422 4.37513 96.446 4.07848 96.803 4.07848C97.16 4.07848 97.4562 4.37513 97.5094 4.77827L99.1347 18.1657H94.4713Z" fill="white"/>
<path d="M110.646 15.5947C110.646 16.0283 110.335 16.3858 109.955 16.3858C109.636 16.3858 109.363 16.1424 109.287 15.7925L106.013 1.13477H102.785V25.118H104.6V7.30363C104.6 6.87006 104.912 6.51255 105.292 6.51255C105.603 6.51255 105.884 6.75596 105.96 7.10586L110.031 25.1104H112.469V1.13477H110.654V15.5947H110.646Z" fill="white"/>
<path d="M118.364 1.13477H113.67V25.118H118.364C119.906 25.118 121.068 24.6616 121.804 23.7565C122.556 22.8361 122.936 21.4289 122.936 19.5729V6.6799C122.936 4.82391 122.556 3.41671 121.804 2.49633C121.06 1.59116 119.906 1.13477 118.364 1.13477ZM120.733 19.7478C120.733 20.8204 120.528 21.6038 120.103 22.1439C119.67 22.6916 119.063 22.973 118.295 22.973H115.857V3.2798H118.295C119.055 3.2798 119.663 3.56124 120.103 4.1089C120.528 4.64896 120.733 5.42483 120.733 6.50495V19.7478Z" fill="white"/>
<path d="M132.247 15.9141C131.738 14.8111 130.766 13.5484 129.368 12.1641C128.16 10.9622 127.34 9.95817 126.869 9.08343C126.368 8.16304 126.117 7.16659 126.117 6.10168C126.117 3.22643 127.796 2.91456 128.525 2.91456C129.292 2.91456 129.9 3.20361 130.333 3.7817C130.735 4.32937 130.933 5.11284 130.933 6.17775V6.74063H132.938V6.43637C132.938 4.57278 132.558 3.14276 131.814 2.18434C131.069 1.22592 129.991 0.769531 128.495 0.769531C126.976 0.769531 125.859 1.23353 125.092 2.18434C124.317 3.14276 123.93 4.54235 123.93 6.3527C123.93 7.69905 124.188 8.91608 124.705 9.97339C125.236 11.0687 126.208 12.3314 127.591 13.7234C128.798 14.9252 129.611 15.9445 130.082 16.8344C130.568 17.7624 130.811 18.8426 130.811 20.0368C130.811 21.1321 130.606 21.9308 130.188 22.4785C129.755 23.0489 129.133 23.3304 128.343 23.3304C126.771 23.3304 125.874 22.159 125.874 20.1052V19.1088H123.869V19.8162C123.869 21.6798 124.249 23.1098 125.008 24.0682C125.753 25.019 126.854 25.4754 128.373 25.4754C129.915 25.4754 131.047 25.0038 131.821 24.0378C132.604 23.0718 132.999 21.6265 132.999 19.7401C132.999 18.2797 132.74 16.9866 132.247 15.9141Z" fill="white"/>
</g>
<defs>
<clipPath id="clip0_1957_2867">
<rect width="133" height="24.7059" fill="white" transform="translate(0 0.771484)"/>
</clipPath>
</defs>
</svg>
